<svg width="60" height="69" viewBox="0 0 60 69" fill="none" xmlns="http://www.w3.org/2000/svg">
<path d="M57.3675 1.63611C56.7525 1.25703 56.051 1.04089 55.3293 1.00808C54.6076 0.975276 53.8894 1.12689 53.2425 1.44861L47.9925 4.07361L40.7475 0.447362C40.1568 0.153419 39.506 0.000438094 38.8463 0.000438094C38.1865 0.000438094 37.5357 0.153419 36.945 0.447362L29.6925 4.07361L22.4475 0.447362C21.8569 0.153138 21.2061 0 20.5462 0C19.8864 0 19.2356 0.153138 18.645 0.447362L11.4 4.07361L6.15 1.44861C5.5019 1.12547 4.78201 0.973197 4.05857 1.00622C3.33513 1.03925 2.63212 1.25648 2.01615 1.63732C1.40019 2.01817 0.891689 2.55001 0.538856 3.18244C0.186022 3.81486 0.000542559 4.52692 0 5.25111V62.8061C0.000223997 63.5308 0.185653 64.2434 0.538684 64.8764C0.891715 65.5093 1.40064 66.0414 2.01714 66.4224C2.63364 66.8033 3.33727 67.0204 4.06125 67.053C4.78522 67.0856 5.50551 66.9326 6.15375 66.6086L11.4038 63.9836L18.6488 67.6099C19.2393 67.9041 19.8902 68.0572 20.55 68.0572C21.2098 68.0572 21.8607 67.9041 22.4513 67.6099L29.6925 63.9836L36.9375 67.6099C37.5281 67.9041 38.1789 68.0572 38.8387 68.0572C39.4986 68.0572 40.1494 67.9041 40.74 67.6099L47.985 63.9836L53.235 66.6086C53.8832 66.9326 54.6035 67.0856 55.3275 67.053C56.0515 67.0204 56.7551 66.8033 57.3716 66.4224C57.9881 66.0414 58.497 65.5093 58.8501 64.8764C59.2031 64.2434 59.3885 63.5308 59.3888 62.8061V5.25111C59.3882 4.52616 59.2022 3.8134 58.8484 3.18065C58.4946 2.54789 57.9848 2.01618 57.3675 1.63611ZM54.885 62.3861L49.8863 59.9036C49.2957 59.6094 48.6448 59.4562 47.985 59.4562C47.3252 59.4562 46.6744 59.6094 46.0838 59.9036L38.8387 63.5261L31.5938 59.9036C31.0032 59.6094 30.3523 59.4562 29.6925 59.4562C29.0327 59.4562 28.3818 59.6094 27.7913 59.9036L20.5462 63.5261L13.3012 59.9036C12.7106 59.6097 12.0598 59.4567 11.4 59.4567C10.7402 59.4567 10.0894 59.6097 9.49875 59.9036L4.5 62.4011V5.65611L9.49875 8.15361C10.0894 8.44756 10.7402 8.60053 11.4 8.60053C12.0598 8.60053 12.7106 8.44756 13.3012 8.15361L20.5462 4.53111L27.7913 8.15361C28.3818 8.44784 29.0327 8.60097 29.6925 8.60097C30.3523 8.60097 31.0032 8.44784 31.5938 8.15361L38.8387 4.53111L46.0838 8.15361C46.6744 8.44784 47.3252 8.60097 47.985 8.60097C48.6448 8.60097 49.2957 8.44784 49.8863 8.15361L54.885 5.65611V62.3861Z" fill="#E77E23"/>
<path d="M40.0197 16.5499L29.6922 26.8736L23.3397 20.5286C22.9168 20.1121 22.3465 19.8795 21.7529 19.8816C21.1594 19.8836 20.5907 20.1201 20.1707 20.5396C19.7507 20.9591 19.5135 21.5275 19.5108 22.1211C19.508 22.7146 19.7399 23.2853 20.156 23.7086L28.1022 31.6549C28.5241 32.0762 29.096 32.3129 29.6922 32.3129C30.2885 32.3129 30.8603 32.0762 31.2822 31.6549L43.1922 19.7299C43.4133 19.5239 43.5906 19.2755 43.7135 18.9995C43.8365 18.7235 43.9026 18.4255 43.908 18.1234C43.9133 17.8213 43.8577 17.5212 43.7446 17.2411C43.6314 16.9609 43.463 16.7064 43.2493 16.4928C43.0357 16.2791 42.7812 16.1107 42.501 15.9975C42.2208 15.8843 41.9207 15.8288 41.6186 15.8341C41.3165 15.8394 41.0186 15.9055 40.7426 16.0285C40.4666 16.1515 40.2182 16.3288 40.0122 16.5499H40.0197Z" fill="#E77E23"/>
<path d="M37.6386 35.7498H21.7461C21.4506 35.7498 21.158 35.808 20.8851 35.921C20.6121 36.0341 20.364 36.1998 20.1551 36.4088C19.9462 36.6177 19.7804 36.8657 19.6674 37.1387C19.5543 37.4117 19.4961 37.7043 19.4961 37.9998C19.4961 38.2952 19.5543 38.5878 19.6674 38.8608C19.7804 39.1338 19.9462 39.3818 20.1551 39.5908C20.364 39.7997 20.6121 39.9654 20.8851 40.0785C21.158 40.1916 21.4506 40.2498 21.7461 40.2498H37.6386C38.2353 40.2498 38.8076 40.0127 39.2296 39.5908C39.6515 39.1688 39.8886 38.5965 39.8886 37.9998C39.8886 37.403 39.6515 36.8307 39.2296 36.4088C38.8076 35.9868 38.2353 35.7498 37.6386 35.7498Z" fill="#E77E23"/>
<path d="M37.6386 43.696H21.7461C21.4506 43.696 21.158 43.7542 20.8851 43.8673C20.6121 43.9804 20.364 44.1461 20.1551 44.3551C19.9462 44.564 19.7804 44.812 19.6674 45.085C19.5543 45.358 19.4961 45.6506 19.4961 45.946C19.4961 46.2415 19.5543 46.5341 19.6674 46.8071C19.7804 47.0801 19.9462 47.3281 20.1551 47.537C20.364 47.746 20.6121 47.9117 20.8851 48.0248C21.158 48.1379 21.4506 48.196 21.7461 48.196H37.6386C38.2353 48.196 38.8076 47.959 39.2296 47.537C39.6515 47.1151 39.8886 46.5428 39.8886 45.946C39.8886 45.3493 39.6515 44.777 39.2296 44.3551C38.8076 43.9331 38.2353 43.696 37.6386 43.696Z" fill="#E77E23"/>
</svg>
